<svg width="72" height="52" viewBox="0 0 72 52" fill="none" xmlns="http://www.w3.org/2000/svg">
<path d="M68.0899 20.8141C67.9793 20.6709 67.8727 20.5325 67.771 20.3985C66.5019 18.7261 65.4759 16.8438 64.5707 15.183C63.6831 13.5547 62.8448 12.0165 61.9295 10.9529C59.8875 8.5799 57.9661 7.42651 56.0555 7.42651H46.6209C46.6119 7.42668 45.7106 7.43763 44.6259 7.43763H43.0874C41.9879 7.43763 41.0289 8.18421 40.7555 9.25323L40.7427 9.3031V30.1343L40.745 30.1771C40.7462 30.1897 40.7696 30.4881 40.5343 30.7448C40.2748 31.0283 39.7766 31.1781 39.0934 31.1781H2.34553C1.05218 31.1779 0 32.1678 0 33.3845V40.9693C0 42.186 1.05218 43.1759 2.34553 43.1759H10.4163C10.8391 48.0074 14.9051 51.8108 19.8454 51.8108C24.7856 51.8108 28.8519 48.0074 29.2746 43.1759H42.782C43.2048 48.0074 47.2708 51.8108 52.2111 51.8108C57.1513 51.8108 61.2176 48.0074 61.6403 43.1759H67.7792C70.1064 43.1759 71.9998 41.2826 71.9998 38.9555V31.7138C72 25.8853 69.647 22.8334 68.0899 20.8141ZM55.7412 42.3444C55.7412 44.2903 54.1576 45.8734 52.2111 45.8734C50.2651 45.8734 48.6821 44.2903 48.6821 42.3444C48.6821 40.3985 50.2651 38.8153 52.2111 38.8153C54.1576 38.8153 55.7412 40.3983 55.7412 42.3444ZM63.8584 23.9706C63.7847 24.0925 63.5741 24.1449 63.2543 24.1245L47.0347 24.1237V10.8935H54.0469C55.9337 10.8935 57.2707 11.7149 58.6618 13.7283C59.5869 15.0674 62.0364 19.2838 62.1614 19.499C62.2484 19.6669 62.3378 19.8376 62.4281 20.01C63.1347 21.3607 64.2029 23.4015 63.8584 23.9706ZM19.8454 38.8153C21.7919 38.8153 23.3755 40.3985 23.3755 42.3444C23.3755 44.2903 21.7919 45.8734 19.8454 45.8734C17.8994 45.8734 16.3164 44.2903 16.3164 42.3444C16.3164 40.3983 17.8994 38.8153 19.8454 38.8153Z" fill="url(#paint0_linear)"/>
<path d="M4.94327 27.8224H16.0619C17.1889 27.8224 18.1057 26.9056 18.1057 25.7785V17.6031C18.1057 16.476 17.1889 15.5592 16.0619 15.5592H4.94327C3.81621 15.5592 2.89941 16.476 2.89941 17.6031V25.7785C2.89941 26.9056 3.81637 27.8224 4.94327 27.8224Z" fill="url(#paint1_linear)"/>
<path d="M23.4198 27.8224H34.5384C35.6655 27.8224 36.5823 26.9056 36.5823 25.7785V17.6031C36.5823 16.476 35.6655 15.5592 34.5384 15.5592H23.4198C22.2928 15.5592 21.376 16.476 21.376 17.6031V25.7785C21.376 26.9056 22.2929 27.8224 23.4198 27.8224Z" fill="url(#paint2_linear)"/>
<path d="M4.94327 12.4526H16.0619C17.1889 12.4526 18.1057 11.5358 18.1057 10.4087V2.23331C18.1057 1.10625 17.1889 0.189453 16.0619 0.189453H4.94327C3.81621 0.189453 2.89941 1.10625 2.89941 2.23331V10.4087C2.89941 11.5358 3.81637 12.4526 4.94327 12.4526Z" fill="url(#paint3_linear)"/>
<path d="M23.4198 12.4526H34.5384C35.6655 12.4526 36.5823 11.5358 36.5823 10.4087V2.23331C36.5823 1.10625 35.6655 0.189453 34.5384 0.189453H23.4198C22.2928 0.189453 21.376 1.10625 21.376 2.23331V10.4087C21.376 11.5358 22.2929 12.4526 23.4198 12.4526Z" fill="url(#paint4_linear)"/>
<defs>
<linearGradient id="paint0_linear" x1="35.9999" y1="7.42651" x2="35.9999" y2="51.8108" gradientUnits="userSpaceOnUse">
<stop stop-color="#0D65D2"/>
<stop offset="1" stop-color="#1C78EB"/>
</linearGradient>
<linearGradient id="paint1_linear" x1="10.5026" y1="15.5592" x2="10.5026" y2="27.8224" gradientUnits="userSpaceOnUse">
<stop stop-color="#0D65D2"/>
<stop offset="1" stop-color="#1C78EB"/>
</linearGradient>
<linearGradient id="paint2_linear" x1="28.9791" y1="15.5592" x2="28.9791" y2="27.8224" gradientUnits="userSpaceOnUse">
<stop stop-color="#0D65D2"/>
<stop offset="1" stop-color="#1C78EB"/>
</linearGradient>
<linearGradient id="paint3_linear" x1="10.5026" y1="0.189453" x2="10.5026" y2="12.4526" gradientUnits="userSpaceOnUse">
<stop stop-color="#DE1142"/>
<stop offset="1" stop-color="#CD0837"/>
</linearGradient>
<linearGradient id="paint4_linear" x1="28.9791" y1="0.189453" x2="28.9791" y2="12.4526" gradientUnits="userSpaceOnUse">
<stop stop-color="#0D65D2"/>
<stop offset="1" stop-color="#1C78EB"/>
</linearGradient>
</defs>
</svg>
