<svg width="60" height="53" viewBox="0 0 60 53" fill="none" xmlns="http://www.w3.org/2000/svg">
<path d="M24.7266 28.125H35.2734V31.6406H24.7266V28.125Z" fill="url(#paint0_linear)"/>
<path d="M48.6772 31.6407H38.7891V33.3985C38.7891 34.3698 38.0026 35.1563 37.0312 35.1563H22.9688C21.9974 35.1563 21.2109 34.3698 21.2109 33.3985V31.6407H11.3228C9.04999 31.6407 7.03995 30.1918 6.32034 28.0358L0 9.07153V47.461C0 50.3687 2.36572 52.7344 5.27344 52.7344H54.7266C57.6343 52.7344 60 50.3687 60 47.461V9.07291L53.6792 28.0358C52.9601 30.1918 50.95 31.6407 48.6772 31.6407Z" fill="url(#paint1_linear)"/>
<path d="M37.0312 0H22.9687C20.061 0 17.6953 2.36572 17.6953 5.27344V7.03125H3.02441L9.65421 26.9234C9.89453 27.6425 10.5656 28.125 11.3228 28.125H21.2109V26.3672C21.2109 25.3958 21.9973 24.6094 22.9687 24.6094H37.0312C38.0026 24.6094 38.789 25.3958 38.789 26.3672V28.125H48.6772C49.4343 28.125 50.1054 27.6425 50.3457 26.9234L56.976 7.03125H42.3047V5.27344C42.3047 2.36572 39.9389 0 37.0312 0ZM21.2109 7.03125V5.27344C21.2109 4.30344 21.9987 3.51562 22.9687 3.51562H37.0312C38.0012 3.51562 38.789 4.30344 38.789 5.27344V7.03125H21.2109Z" fill="url(#paint2_linear)"/>
<defs>
<linearGradient id="paint0_linear" x1="30" y1="28.125" x2="30" y2="31.6406" gradientUnits="userSpaceOnUse">
<stop stop-color="#0D65D2"/>
<stop offset="1" stop-color="#1C78EB"/>
</linearGradient>
<linearGradient id="paint1_linear" x1="30" y1="9.07153" x2="30" y2="52.7344" gradientUnits="userSpaceOnUse">
<stop stop-color="#0D65D2"/>
<stop offset="1" stop-color="#1C78EB"/>
</linearGradient>
<linearGradient id="paint2_linear" x1="30.0002" y1="0" x2="30.0002" y2="28.125" gradientUnits="userSpaceOnUse">
<stop stop-color="#DE1142"/>
<stop offset="1" stop-color="#CD0837"/>
</linearGradient>
</defs>
</svg>
