<svg width="61" height="63" viewBox="0 0 61 63" fill="none" xmlns="http://www.w3.org/2000/svg">
<path d="M14.6662 16.6867L42.2834 4.84648L30.8482 0.148768C30.3652 -0.0495893 29.8236 -0.0495893 29.3406 0.148768L1.875 11.4319L14.6662 16.6867Z" fill="url(#paint0_linear)"/>
<path d="M47.4235 6.95862L19.7979 18.7953L30.0946 23.0254L58.3141 11.4326L47.4235 6.95862Z" fill="url(#paint1_linear)"/>
<path d="M28.1112 26.499L16.9354 21.9079V30.6007C16.9354 31.6961 16.0472 32.5843 14.9518 32.5843C13.8564 32.5843 12.9682 31.6961 12.9682 30.6007V20.2782L0.0947266 14.9896V49.9089C0.0947266 50.7132 0.580454 51.438 1.32454 51.7437L28.1112 62.7479V26.499Z" fill="url(#paint2_linear)"/>
<path d="M32.0781 26.499V62.7479L58.8648 51.7437C59.6089 51.4381 60.0946 50.7132 60.0946 49.9089C60.0946 48.5742 60.0946 16.4506 60.0946 14.9896L32.0781 26.499Z" fill="url(#paint3_linear)"/>
<defs>
<linearGradient id="paint0_linear" x1="22.0792" y1="0" x2="22.0792" y2="16.6867" gradientUnits="userSpaceOnUse">
<stop stop-color="#DE1142"/>
<stop offset="1" stop-color="#CD0837"/>
</linearGradient>
<linearGradient id="paint1_linear" x1="39.056" y1="6.95862" x2="39.056" y2="23.0254" gradientUnits="userSpaceOnUse">
<stop stop-color="#DE1142"/>
<stop offset="1" stop-color="#CD0837"/>
</linearGradient>
<linearGradient id="paint2_linear" x1="14.103" y1="14.9896" x2="14.103" y2="62.7479" gradientUnits="userSpaceOnUse">
<stop stop-color="#0D65D2"/>
<stop offset="1" stop-color="#1C78EB"/>
</linearGradient>
<linearGradient id="paint3_linear" x1="46.0864" y1="14.9896" x2="46.0864" y2="62.7479" gradientUnits="userSpaceOnUse">
<stop stop-color="#0D65D2"/>
<stop offset="1" stop-color="#1C78EB"/>
</linearGradient>
</defs>
</svg>
