<svg width="60" height="50" viewBox="0 0 60 50" fill="none" xmlns="http://www.w3.org/2000/svg">
<path d="M7.7501 16.0563C10.3354 13.9792 13.5855 12.8353 16.9017 12.8353H43.0984C46.4147 12.8353 49.6649 13.9792 52.25 16.0563C54.0245 17.482 55.437 19.3084 56.3795 21.3609L60 16.408L59.2204 15.3664C58.2072 14.0127 57.0289 12.7923 55.7184 11.7393C52.1535 8.87505 47.6717 7.29768 43.0986 7.29768H39.056V5.40756C39.056 2.4258 36.6301 0 33.6484 0C32.2437 0 30.9625 0.538727 30.0001 1.42011C29.0377 0.538727 27.7566 0 26.3518 0C23.37 0 20.9442 2.42592 20.9442 5.40756V7.29757H16.9017C12.3287 7.29757 7.84685 8.87505 4.28191 11.7392C2.97109 12.7923 1.79279 14.0125 0.77983 15.3663L0 16.408L3.62052 21.361C4.56312 19.3085 5.97561 17.482 7.7501 16.0563Z" fill="url(#paint0_linear)"/>
<path d="M56.3329 35.9469L53.9305 25.0571C52.8089 19.9734 48.3034 16.3535 43.0975 16.3535H16.9007C11.6949 16.3535 7.18922 19.9734 6.06779 25.0571L3.66532 35.9469C2.13791 42.8705 7.40827 49.4304 14.4983 49.4304H45.4999C52.59 49.4303 57.8603 42.8705 56.3329 35.9469Z" fill="url(#paint1_linear)"/>
<defs>
<linearGradient id="paint0_linear" x1="30" y1="0" x2="30" y2="21.361" gradientUnits="userSpaceOnUse">
<stop stop-color="#DE1142"/>
<stop offset="1" stop-color="#CD0837"/>
</linearGradient>
<linearGradient id="paint1_linear" x1="29.9991" y1="16.3535" x2="29.9991" y2="49.4304" gradientUnits="userSpaceOnUse">
<stop stop-color="#0D65D2"/>
<stop offset="1" stop-color="#1C78EB"/>
</linearGradient>
</defs>
</svg>
