<svg width="55" height="55" viewBox="0 0 55 55" fill="none" xmlns="http://www.w3.org/2000/svg">
<path d="M0.944336 12.998H12.8908V0.944092L0.944336 12.998Z" fill="url(#paint0_linear)"/>
<path d="M42.002 29.1113C34.8942 29.1113 29.1113 34.8942 29.1113 42.002C29.1113 49.1097 34.8942 55 42.002 55C49.1097 55 55 49.1097 55 42.002C55 34.8942 49.1097 29.1113 42.002 29.1113ZM47.9751 41.5298L41.5298 47.9751C40.9005 48.6045 39.8807 48.6045 39.2513 47.9751L36.0287 44.7525C35.3993 44.1231 35.3993 43.1034 36.0287 42.474C36.658 41.8446 37.6778 41.8446 38.3072 42.474L40.3906 44.5574L45.6967 39.2513C46.3261 38.6219 47.3459 38.6219 47.9753 39.2513C48.6046 39.8807 48.6046 40.9005 47.9751 41.5298Z" fill="url(#paint1_linear)"/>
<path d="M8.05664 35.5566H27.2545C29.748 29.8761 35.4115 25.8887 42.002 25.8887V4.83398C42.002 2.16842 39.8335 0 37.168 0H16.1133V14.6094C16.1133 15.5 15.3926 16.2207 14.502 16.2207H0V50.0586C0 52.7242 2.16842 55 4.83398 55H32.4337C29.309 52.6735 27.0198 49.1762 26.2144 45.2246H8.05664C7.16601 45.2246 6.44531 44.5039 6.44531 43.6133C6.44531 42.7226 7.16601 42.002 8.05664 42.002H25.8887C25.8887 40.8985 26.002 39.821 26.2144 38.7793H8.05664C7.16601 38.7793 6.44531 38.0586 6.44531 37.168C6.44531 36.2773 7.16601 35.5566 8.05664 35.5566ZM20.9473 9.77539H33.9453C34.8359 9.77539 35.5566 10.4961 35.5566 11.3867C35.5566 12.2774 34.8359 12.998 33.9453 12.998H20.9473C20.0566 12.998 19.3359 12.2774 19.3359 11.3867C19.3359 10.4961 20.0566 9.77539 20.9473 9.77539ZM20.9473 16.2207H33.9453C34.8359 16.2207 35.5566 16.9414 35.5566 17.832C35.5566 18.7227 34.8359 19.4434 33.9453 19.4434H20.9473C20.0566 19.4434 19.3359 18.7227 19.3359 17.832C19.3359 16.9414 20.0566 16.2207 20.9473 16.2207ZM8.05664 22.666H33.9453C34.8359 22.666 35.5566 23.3867 35.5566 24.2773C35.5566 25.168 34.8359 25.8887 33.9453 25.8887H8.05664C7.16601 25.8887 6.44531 25.168 6.44531 24.2773C6.44531 23.3867 7.16601 22.666 8.05664 22.666ZM8.05664 29.1113H28.1042C28.9949 29.1113 29.7156 29.832 29.7156 30.7227C29.7156 31.6133 28.9949 32.334 28.1042 32.334H8.05664C7.16601 32.334 6.44531 31.6133 6.44531 30.7227C6.44531 29.832 7.16601 29.1113 8.05664 29.1113Z" fill="url(#paint2_linear)"/>
<defs>
<linearGradient id="paint0_linear" x1="6.91758" y1="0.944092" x2="6.91758" y2="12.998" gradientUnits="userSpaceOnUse">
<stop stop-color="#0D65D2"/>
<stop offset="1" stop-color="#1C78EB"/>
</linearGradient>
<linearGradient id="paint1_linear" x1="42.0557" y1="29.1113" x2="42.0557" y2="55" gradientUnits="userSpaceOnUse">
<stop stop-color="#DE1142"/>
<stop offset="1" stop-color="#CD0837"/>
</linearGradient>
<linearGradient id="paint2_linear" x1="21.001" y1="0" x2="21.001" y2="55" gradientUnits="userSpaceOnUse">
<stop stop-color="#0D65D2"/>
<stop offset="1" stop-color="#1C78EB"/>
</linearGradient>
</defs>
</svg>
