<svg width="60" height="74" viewBox="0 0 60 74" fill="none" xmlns="http://www.w3.org/2000/svg">
<path d="M0 24.5441H54.5448V35.4531H0V24.5441ZM2.72724 38.1803V68.1799C2.72724 69.6265 3.3019 71.0139 4.32482 72.0368C5.34773 73.0597 6.7351 73.6344 8.18171 73.6344H46.363C47.8097 73.6344 49.197 73.0597 50.2199 72.0368C51.2429 71.0139 51.8175 69.6265 51.8175 68.1799V38.1803H2.72724ZM38.1813 54.5437H16.3634V49.0893H38.1813V54.5437Z" fill="url(#paint0_linear)"/>
<path d="M47.1014 12.7805H44.583V15.8151H47.1014C47.9379 15.8151 48.6186 15.1344 48.6186 14.2978C48.6186 13.4612 47.938 12.7805 47.1014 12.7805Z" fill="url(#paint1_linear)"/>
<path d="M54.0829 8.31776C49.3945 3.62929 41.8054 3.62859 37.1163 8.31776C32.4278 13.0062 32.427 20.5953 37.1163 25.2845C41.8047 29.9729 49.3938 29.9736 54.0829 25.2845C58.7714 20.596 58.7721 13.0069 54.0829 8.31776ZM47.1012 17.7865H44.5828V18.8189H46.6006C47.1449 18.8189 47.5861 19.2601 47.5861 19.8043C47.5861 20.3486 47.1449 20.7898 46.6006 20.7898H44.5828V21.8065C44.5828 22.3507 44.1416 22.7919 43.5974 22.7919C43.0531 22.7919 42.612 22.3507 42.612 21.8065V20.7898H41.5953C41.051 20.7898 40.6098 20.3486 40.6098 19.8043C40.6098 19.2601 41.051 18.8189 41.5953 18.8189H42.612V17.7865H41.5953C41.051 17.7865 40.6098 17.3453 40.6098 16.8011C40.6098 16.2568 41.051 15.8157 41.5953 15.8157H42.612V11.7957C42.612 11.2514 43.0531 10.8103 43.5974 10.8103H47.1012C49.0245 10.8103 50.5893 12.375 50.5893 14.2984C50.5893 16.2218 49.0246 17.7865 47.1012 17.7865Z" fill="url(#paint2_linear)"/>
<defs>
<linearGradient id="paint0_linear" x1="30" y1="0" x2="30" y2="73.6344" gradientUnits="userSpaceOnUse">
<stop stop-color="#0D65D2"/>
<stop offset="1" stop-color="#1C78EB"/>
</linearGradient>
<linearGradient id="paint1_linear" x1="46.6008" y1="12.7805" x2="46.6008" y2="15.8151" gradientUnits="userSpaceOnUse">
<stop stop-color="#DE1142"/>
<stop offset="1" stop-color="#CD0837"/>
</linearGradient>
<linearGradient id="paint2_linear" x1="45.5996" y1="4.80115" x2="45.5996" y2="28.8011" gradientUnits="userSpaceOnUse">
<stop stop-color="#DE1142"/>
<stop offset="1" stop-color="#CD0837"/>
</linearGradient>
</defs>
</svg>
