<svg width="174" height="59" viewBox="0 0 174 59" fill="none" xmlns="http://www.w3.org/2000/svg">
<path d="M143.268 58.7187C141.298 58.7187 139.792 58.0215 138.756 56.6273C137.737 55.2561 137.536 53.6292 138.137 51.7547L142.172 39.1513C142.767 37.2919 144.012 35.6574 145.92 34.2553C147.843 32.8766 149.793 32.1872 151.764 32.1872H168.381C170.289 32.1872 171.752 32.8766 172.784 34.2553C173.817 35.6574 174.038 37.2919 173.443 39.1513L169.407 51.7547C168.812 53.6137 167.547 55.2407 165.621 56.6273C163.685 58.0215 161.778 58.7187 159.885 58.7187H143.268ZM24.6601 0.434814H55.449C57.2045 0.434814 58.2248 0.611111 59.6697 1.81748C60.4133 2.43848 61.0378 3.29117 61.4136 4.18345L61.4118 4.18381C61.6027 4.6375 61.7321 5.10703 61.7994 5.59202C61.8665 6.0727 61.873 6.56813 61.8196 7.07759C61.767 7.58129 61.655 8.10011 61.4842 8.63403L61.2835 9.26007C61.085 9.8807 60.8291 10.469 60.5168 11.0237C60.2029 11.5811 59.8304 12.1103 59.3987 12.6122C59.0348 13.0353 58.6295 13.4379 58.1834 13.8197C57.871 14.087 57.5392 14.3439 57.1872 14.5907C57.4296 14.8526 57.6426 15.1271 57.826 15.4146C58.1074 15.8557 58.3189 16.3234 58.4594 16.8185C58.6255 17.4028 58.6922 18.022 58.6594 18.6757C58.6269 19.318 58.4972 19.9929 58.271 20.701L58.0577 21.3659C57.8901 21.8894 57.6768 22.3949 57.417 22.8817C57.1554 23.3724 56.851 23.8409 56.504 24.2866C56.1606 24.7277 55.7694 25.1552 55.3305 25.5682C55.0001 25.8794 54.6419 26.1824 54.2564 26.4763L54.2604 26.4817L53.8994 26.7425C53.3848 27.1146 52.8653 27.4431 52.3407 27.7284C51.8168 28.0133 51.2925 28.2515 50.7694 28.4422C50.2383 28.6361 49.7068 28.7815 49.1754 28.879C48.6374 28.9775 48.1056 29.0268 47.5803 29.0268H23.3568V29.025H22.134L22.1394 29.0089H2.33617C1.68942 29.0089 1.16049 28.6102 1.16049 28.1227C1.16049 27.6355 1.68942 27.2369 2.33617 27.2369H22.7065L22.7083 27.2315H24.5822L24.5804 27.2369H47.5803V27.2387C48.4328 27.2387 49.2932 27.0804 50.1601 26.7641C50.6022 26.6029 51.0464 26.4007 51.4925 26.1575C51.9375 25.9147 52.3897 25.6272 52.8491 25.2955L52.9672 25.2095H52.9708C53.3758 24.9123 53.7502 24.6018 54.0932 24.2787C54.4622 23.9315 54.7944 23.5678 55.0895 23.1889C55.382 22.8137 55.6324 22.4312 55.8407 22.0419C56.0515 21.6479 56.2233 21.2432 56.3563 20.8276L56.5692 20.1624C56.7443 19.6159 56.8452 19.1006 56.8719 18.6174C56.8978 18.1476 56.8528 17.7086 56.7371 17.3006C56.624 16.9034 56.4399 16.5292 56.1851 16.1788C55.9239 15.8194 55.5903 15.4855 55.1853 15.1782L54.6553 14.7763L54.1253 14.3741L54.6989 14.037L55.2728 13.6995C55.8356 13.3685 56.3491 13.0148 56.8128 12.6378C57.2718 12.265 57.6811 11.8696 58.0404 11.4515C58.3935 11.041 58.699 10.6075 58.9566 10.1509C59.2153 9.69217 59.4239 9.21581 59.5821 8.72182L59.7824 8.09543C59.9129 7.68815 59.999 7.29346 60.0397 6.91101C60.0797 6.53863 60.0757 6.18028 60.0278 5.83668C59.981 5.49992 59.8916 5.17575 59.7601 4.86453C59.5043 4.25937 59.0337 3.6157 58.5279 3.19331C58.2753 2.98248 57.9953 2.80582 57.6891 2.6637C57.3763 2.51835 57.0358 2.40897 56.668 2.3363C56.2925 2.26182 55.8861 2.22476 55.449 2.22476C45.186 2.22476 34.9227 2.20677 24.6601 2.20677C24.0137 2.20677 23.4844 1.80813 23.4844 1.32061C23.4844 0.83346 24.0137 0.434814 24.6601 0.434814ZM5.65279 22.5129H27.0201C27.446 22.5129 27.7944 22.9115 27.7944 23.399C27.7944 23.8862 27.446 24.2848 27.0201 24.2848H5.65279C5.22691 24.2848 4.87849 23.8862 4.87849 23.399C4.87849 22.9115 5.22691 22.5129 5.65279 22.5129ZM4.33803 17.9928H27.9036C28.373 17.9928 28.7575 18.3915 28.7575 18.879C28.7575 19.3662 28.373 19.7648 27.9036 19.7648H4.33803C3.86819 19.7648 3.48411 19.3662 3.48411 18.879C3.48411 18.3915 3.86819 17.9928 4.33803 17.9928ZM1.34532 13.1846H28.9139C29.4637 13.1846 29.913 13.5833 29.913 14.0704C29.913 14.5576 29.4637 14.9566 28.9139 14.9566H1.34532C0.795855 14.9566 0.346191 14.5576 0.346191 14.0704C0.346191 13.5833 0.795855 13.1846 1.34532 13.1846ZM9.95198 8.74629H30.5161C30.9262 8.74629 31.2613 9.14493 31.2613 9.63209C31.2613 10.1196 30.9262 10.5182 30.5161 10.5182H9.95198C9.54195 10.5182 9.20686 10.1196 9.20686 9.63209C9.20686 9.14493 9.54195 8.74629 9.95198 8.74629ZM16.0459 4.70694H32.0305C32.349 4.70694 32.6095 5.10559 32.6095 5.5931C32.6095 6.08025 32.349 6.4789 32.0305 6.4789H16.0459C15.7273 6.4789 15.4668 6.08025 15.4668 5.5931C15.4668 5.10559 15.7273 4.70694 16.0459 4.70694ZM47.2823 18.4246C47.3144 18.6347 47.3194 18.8538 47.2978 19.0816C47.2766 19.3007 47.2294 19.5248 47.1558 19.754L46.6399 21.3659C46.5685 21.5886 46.4781 21.8019 46.3689 22.0059C46.2572 22.2142 46.1293 22.4103 45.9845 22.5942C45.844 22.7726 45.6836 22.9457 45.5035 23.1126C45.3093 23.2933 45.1464 23.4217 44.9241 23.5811C44.7032 23.7394 44.4863 23.8775 44.2734 23.9952C44.0514 24.1182 43.836 24.2193 43.6277 24.2985C43.4018 24.3845 43.1777 24.4489 42.9561 24.4924H42.9543C42.7273 24.5363 42.505 24.5586 42.287 24.5586H36.2212V24.5568H34.9984L35.1843 23.9765L35.3706 23.3944L37.5155 16.6958L37.6156 16.3828L37.7158 16.0701H44.4319C44.6744 16.0701 44.9075 16.0935 45.1309 16.141C45.3576 16.1892 45.5701 16.2612 45.7676 16.3576C45.9719 16.4569 46.1592 16.5814 46.3289 16.7304C46.4889 16.8707 46.6341 17.0355 46.7635 17.2243C46.8997 17.4039 47.0117 17.5946 47.0989 17.7957C47.1883 18.0008 47.2492 18.2105 47.2823 18.4246ZM45.4545 19.2154C45.4862 19.1161 45.5067 19.0204 45.5161 18.9294C45.5492 18.6023 45.3979 18.294 45.1529 18.077C45.1043 18.0342 45.0477 17.9968 44.9836 17.9655C44.9108 17.9302 44.8326 17.904 44.7497 17.8874C44.6539 17.868 44.5476 17.8583 44.4319 17.8583V17.8601H39.0165L37.4449 22.7687H42.287V22.7705C42.3911 22.7705 42.5032 22.7582 42.6235 22.7345C42.7417 22.7111 42.8642 22.6755 42.9907 22.6273C43.1345 22.5726 43.2779 22.506 43.4202 22.4272C43.5715 22.3434 43.725 22.2455 43.8807 22.134L43.9088 22.1139L43.9167 22.1099C44.0421 22.0192 44.161 21.9217 44.2734 21.8178C44.3854 21.7131 44.4867 21.6037 44.5771 21.4893C44.6618 21.3817 44.7339 21.273 44.7933 21.1633C44.8535 21.0518 44.9021 20.9392 44.9382 20.8258L44.9389 20.8262L45.4545 19.2154ZM50.1954 7.30318C50.2213 7.51581 50.2217 7.73528 50.1972 7.96087C50.1731 8.1789 50.1241 8.40341 50.0502 8.63403L49.5494 10.1991C49.478 10.4215 49.3876 10.6348 49.2784 10.8388C49.1667 11.0471 49.0385 11.2436 48.894 11.4271C48.7538 11.6052 48.5938 11.7779 48.4144 11.9448C48.3427 12.011 48.2681 12.0768 48.1903 12.1416L48.1968 12.1506L47.8404 12.4107C47.6361 12.5604 47.4272 12.6928 47.2139 12.8087C47.0013 12.9238 46.7854 13.0209 46.5664 13.1001C46.3419 13.1807 46.1171 13.2415 45.8923 13.2818C45.6591 13.3239 45.4321 13.3447 45.2116 13.3447H39.8121V13.3429H38.5892L38.7747 12.7626L38.9614 12.1805L41.0987 5.50531L41.1989 5.19266L41.2991 4.87964H47.349C47.5922 4.87964 47.8271 4.90339 48.053 4.95052C48.2789 4.99801 48.4933 5.07033 48.6951 5.16711C48.9051 5.26785 49.0961 5.3927 49.2676 5.54201C49.4366 5.68952 49.5868 5.86006 49.7173 6.05399L49.7176 6.05363C49.8495 6.2472 49.9551 6.4476 50.0343 6.65412C50.1143 6.86351 50.1684 7.07939 50.1954 7.30138V7.30318ZM48.3488 8.09543C48.3827 7.99001 48.4054 7.88603 48.4169 7.78421C48.4274 7.69103 48.4274 7.60036 48.4169 7.51293C48.3899 7.29166 48.2649 7.03801 48.0919 6.88582C48.0415 6.84121 47.9856 6.80415 47.9251 6.77501C47.8574 6.74263 47.7759 6.71708 47.6823 6.69873C47.5835 6.6793 47.4722 6.66959 47.349 6.66959H42.5998L41.0353 11.5548H45.2116C45.3385 11.5548 45.4642 11.5436 45.5885 11.5217C45.7186 11.4983 45.844 11.4652 45.9643 11.422C46.0911 11.376 46.2245 11.3152 46.3635 11.2389C46.503 11.1626 46.6428 11.073 46.7833 10.9705L46.8096 10.9511L46.8262 10.9428C46.9516 10.8525 47.0705 10.755 47.1829 10.6506C47.2949 10.5463 47.3962 10.4369 47.4866 10.3225C47.5713 10.2146 47.6433 10.1059 47.7028 9.99619C47.763 9.88502 47.8112 9.7724 47.8476 9.65907H47.8484L48.3488 8.09543ZM64.0582 26.7922C64.3746 26.9386 64.7201 27.0494 65.0948 27.1239C65.4796 27.2002 65.8871 27.2387 66.3177 27.2387V27.2369H86.4427L87.3002 24.5586H74.4333C74.203 24.5586 73.9771 24.5338 73.7555 24.4845C73.5336 24.4349 73.3232 24.3611 73.125 24.2636C72.925 24.1647 72.7387 24.0431 72.5665 23.8988C72.3957 23.7556 72.2375 23.589 72.092 23.3994L72.0743 23.3767L72.0707 23.3713L72.0714 23.371C71.9399 23.1911 71.8329 23.0015 71.7511 22.8029C71.4888 22.1664 71.5086 21.476 71.7162 20.8276L73.0392 16.6958L73.1394 16.3828L73.2396 16.0701H86.6718L87.5445 13.3447H75.3358V13.3429H74.1129L74.2985 12.7626L74.4851 12.1805L75.7931 8.09543C75.8644 7.87308 75.9534 7.66045 76.0601 7.45824C76.1674 7.25424 76.2939 7.05672 76.4391 6.86603C76.5785 6.68326 76.736 6.50588 76.9115 6.33463C77.0873 6.16229 77.2779 5.99894 77.4825 5.84387C77.6861 5.68988 77.8965 5.55244 78.1131 5.43228C78.3293 5.31211 78.5483 5.21137 78.7706 5.13005C78.9958 5.04802 79.2253 4.98578 79.4588 4.94404C79.6973 4.90087 79.9315 4.87964 80.1611 4.87964H93.6012L94.4512 2.22476H74.8995C74.0038 2.22476 73.112 2.38163 72.2264 2.69501C71.772 2.85583 71.3213 3.05551 70.8752 3.29369C70.4303 3.53115 69.9791 3.81359 69.5223 4.141L69.5219 4.14028C69.0777 4.4684 68.6709 4.81056 68.3026 5.16531C67.9366 5.51755 67.6083 5.88345 67.3186 6.26195C67.0333 6.63469 66.7854 7.0193 66.576 7.41543C66.3653 7.81336 66.1934 8.21956 66.0608 8.63403L61.9839 21.3659C61.8524 21.7771 61.7645 22.1747 61.7209 22.5582C61.678 22.9363 61.678 23.2954 61.7213 23.6358C61.7634 23.9653 61.8477 24.2859 61.9746 24.5971C62.2336 25.2318 62.6692 25.8168 63.1985 26.2525C63.4597 26.4677 63.7465 26.6476 64.0582 26.7922ZM66.3177 29.0268C65.7639 29.0268 65.2343 28.9757 64.7295 28.8736C64.2214 28.771 63.748 28.6178 63.3088 28.4145C62.8613 28.2069 62.4473 27.9468 62.0668 27.6341C61.6964 27.3294 61.361 26.9764 61.0605 26.576L61.0561 26.5713L61.0381 26.5468C60.7376 26.1392 60.4962 25.7121 60.315 25.2653C60.1341 24.8191 60.0123 24.3503 59.9496 23.8596C59.8887 23.3792 59.8862 22.886 59.9424 22.3797C59.9979 21.8804 60.111 21.3626 60.2826 20.8276L64.3591 8.09543C64.527 7.57194 64.7385 7.06823 64.9936 6.58468C65.2501 6.0986 65.5513 5.6298 65.8972 5.17827C66.2388 4.73177 66.6247 4.30146 67.0545 3.88698C67.4804 3.47611 67.9502 3.08106 68.4633 2.70256L68.4828 2.68853L68.4882 2.68493V2.68529C69.0031 2.31723 69.5208 1.99378 70.0415 1.71602C70.5722 1.43251 71.1022 1.19721 71.6311 1.00976C72.173 0.818349 72.7153 0.674434 73.2583 0.57909C73.7984 0.484106 74.3453 0.436613 74.8995 0.436613V0.434814H95.6748V0.436613H96.8977L96.7118 1.01695L96.5255 1.59909L95.1023 6.04392L95.0021 6.35657L94.9019 6.66959H80.1611C80.0285 6.66959 79.8977 6.6811 79.7683 6.70413C79.6357 6.72787 79.5067 6.76241 79.3814 6.80847H79.3796C79.2495 6.8556 79.1158 6.9182 78.9782 6.9952C78.8402 7.07255 78.7011 7.1643 78.5609 7.27044C78.4143 7.38161 78.2828 7.4935 78.1671 7.60612C78.0525 7.71729 77.9506 7.83206 77.8605 7.95008C77.778 8.05837 77.7052 8.17207 77.6422 8.29008C77.5802 8.40737 77.5308 8.5225 77.4944 8.63583L77.4941 8.63547L76.5594 11.5548H88.7681V11.5566H89.991L89.805 12.1369L89.6188 12.7191L88.1729 17.2341L88.0727 17.5471L87.9725 17.8601H74.5403L73.4179 21.3659C73.2727 21.8192 73.3451 22.2164 73.7094 22.5265L73.7105 22.5255C73.7768 22.5816 73.8452 22.6273 73.9162 22.6625C73.9861 22.6967 74.0625 22.723 74.1457 22.7406C74.2318 22.7593 74.3281 22.7687 74.4333 22.7687H88.5234V22.7705H89.7463L89.5608 23.3508L89.3745 23.933L87.9437 28.4012L87.8432 28.7138L87.7434 29.0268H66.3177ZM95.571 26.7958C95.882 26.9404 96.2243 27.0502 96.5979 27.1243C96.9752 27.1995 97.383 27.2369 97.8212 27.2369H117.946L118.804 24.5586H105.929C105.699 24.5586 105.472 24.5338 105.251 24.4845C105.029 24.4349 104.819 24.3611 104.622 24.2636C104.421 24.1643 104.235 24.0416 104.063 23.8955C103.905 23.7613 103.757 23.6059 103.62 23.4289L103.613 23.4228L103.589 23.389C103.45 23.2022 103.337 23.0065 103.252 22.8029C103.081 22.3913 103.023 21.9426 103.068 21.4997C103.09 21.2824 103.138 21.0582 103.212 20.8276L109.169 2.22476H99.6086L93.4798 21.3659C93.3555 21.7537 93.2741 22.1326 93.2355 22.5021C93.1973 22.8669 93.2009 23.2209 93.2467 23.5638C93.2917 23.9017 93.3786 24.2323 93.5068 24.5554C93.6355 24.8796 93.8084 25.1998 94.025 25.5157L94.0365 25.5322C94.2444 25.8103 94.4732 26.0532 94.7229 26.2601C94.9809 26.4738 95.2637 26.6526 95.571 26.7958ZM97.8212 29.0268C96.6988 29.0268 95.6961 28.8214 94.8148 28.4109C94.3683 28.2026 93.9565 27.9424 93.5803 27.6298C93.2099 27.3225 92.8749 26.9649 92.5751 26.5569L92.574 26.5555L92.5546 26.5321L92.5477 26.5224C92.2555 26.0967 92.0195 25.6563 91.8408 25.2023C91.6617 24.7486 91.5399 24.2794 91.4751 23.7944C91.4113 23.317 91.4052 22.8298 91.456 22.3333C91.5068 21.8426 91.6141 21.3403 91.7784 20.8276L98.1076 1.06049L98.2078 0.74747L98.3079 0.434814H110.392V0.436613H111.615L111.429 1.01695L104.913 21.3659C104.835 21.612 104.804 21.8778 104.907 22.1214C104.937 22.1927 104.975 22.2599 105.022 22.3229H105.022C105.083 22.4039 105.147 22.4726 105.213 22.5291C105.276 22.5834 105.343 22.6276 105.413 22.6625C105.483 22.6967 105.559 22.723 105.641 22.7406C105.728 22.7593 105.824 22.7687 105.929 22.7687H120.027V22.7705H121.25L121.064 23.3508L120.878 23.933L119.447 28.4012L119.347 28.7138L119.247 29.0268H97.8212ZM162.125 39.1513C162.338 38.485 162.265 37.8884 161.899 37.3617C161.553 36.8425 161.022 36.5871 160.308 36.5871H156.964C156.243 36.5871 155.541 36.8425 154.855 37.3617C154.158 37.8884 153.704 38.485 153.49 39.1513L149.455 51.7547C149.242 52.421 149.319 53.0017 149.688 53.4975C150.091 54.0321 150.635 54.2955 151.294 54.2955H154.638C155.289 54.2955 155.987 54.0321 156.732 53.4975C157.426 53.0017 157.876 52.421 158.089 51.7547L162.125 39.1513ZM107.747 58.7187C105.776 58.7187 104.269 58.0215 103.234 56.6273C102.215 55.2561 102.014 53.6292 102.614 51.7547L106.65 39.1513C107.245 37.2919 108.49 35.6574 110.397 34.2553C112.321 32.8766 114.271 32.1872 116.241 32.1872H140.151L138.742 36.5871H121.442C120.721 36.5871 120.018 36.8425 119.333 37.3617C118.636 37.8884 118.181 38.485 117.968 39.1513L113.933 51.7547C113.719 52.421 113.797 53.0017 114.166 53.4975C114.569 54.0321 115.113 54.2955 115.772 54.2955H121.753L124.784 44.8295H136.103L131.655 58.7187H107.747ZM87.7686 51.7471C87.9722 51.1117 87.8864 50.5307 87.5121 50.0039C87.1586 49.4848 86.6275 49.2293 85.9137 49.2293H79.9171L76.8787 58.7187H65.5603L74.0556 32.1872H97.3286C99.2836 32.1872 100.777 32.8766 101.802 34.2553C102.834 35.6574 103.056 37.2919 102.461 39.1513L101.761 41.3356C101.059 43.5278 99.4966 45.3562 97.0703 46.8281C99.0127 48.1989 99.5697 50.1666 98.7486 52.7308L96.8314 58.7187H85.5361L87.7686 51.7471ZM91.1421 39.1513C91.3554 38.485 91.283 37.8884 90.9242 37.3617C90.5703 36.8425 90.0317 36.5871 89.3024 36.5871H83.9652L81.3259 44.8295H86.6632C87.3305 44.8295 88.0356 44.5661 88.7883 44.0315C89.4847 43.5047 89.9369 42.9158 90.1452 42.2653L91.1421 39.1513ZM53.2587 47.6646H44.6243L41.085 58.7187H29.7667L36.0321 39.1513C36.6273 37.2919 37.8797 35.6574 39.8027 34.2553C41.7105 32.8766 43.6533 32.1872 45.6238 32.1872H69.5331L61.0378 58.7187H49.7191L53.2587 47.6646ZM50.8245 36.5871C50.1032 36.5871 49.393 36.8425 48.7145 37.3617C48.0184 37.8884 47.5637 38.485 47.3504 39.1513L46.0558 43.195H54.6899L56.8056 36.5871H50.8245ZM6.16803 58.7187C4.19751 58.7187 2.69071 58.0215 1.65555 56.6273C0.643806 55.2561 0.435548 53.6292 1.03582 51.7547L5.07126 39.1513C5.66649 37.2919 6.91927 35.6574 8.81881 34.2553C10.7421 32.8766 12.6928 32.1872 14.6634 32.1872H35.2286L33.8198 36.5871H19.8716C19.1423 36.5871 18.4401 36.8425 17.7541 37.3617C17.0576 37.8884 16.6029 38.485 16.3896 39.1513L12.3541 51.7547C12.1408 52.421 12.2187 53.0017 12.5873 53.4975C12.998 54.0321 13.5342 54.2955 14.2014 54.2955H28.1496L26.7333 58.7187H6.16803Z" fill="#1068D6"/>
</svg>
