<svg width="22" height="20" viewBox="0 0 22 20" fill="none" xmlns="http://www.w3.org/2000/svg">
<path d="M19 5.00024H3C1.89543 5.00024 1 5.89567 1 7.00024V17.0002C1 18.1048 1.89543 19.0002 3 19.0002H19C20.1046 19.0002 21 18.1048 21 17.0002V7.00024C21 5.89567 20.1046 5.00024 19 5.00024Z" stroke="#FBFDFF" stroke-width="2" stroke-linecap="round" stroke-linejoin="round"/>
<path d="M15 19V3C15 2.46957 14.7893 1.96086 14.4142 1.58579C14.0391 1.21071 13.5304 1 13 1H9C8.46957 1 7.96086 1.21071 7.58579 1.58579C7.21071 1.96086 7 2.46957 7 3V19" stroke="#FBFDFF" stroke-width="2" stroke-linecap="round" stroke-linejoin="round"/>
</svg>
