<svg width="22" height="27" viewBox="0 0 22 27" fill="none" xmlns="http://www.w3.org/2000/svg">
<path d="M21 11C21 18.7778 11 25.4444 11 25.4444C11 25.4444 1 18.7778 1 11C1 8.34783 2.05357 5.8043 3.92893 3.92893C5.8043 2.05357 8.34784 1 11 1C13.6522 1 16.1957 2.05357 18.0711 3.92893C19.9464 5.8043 21 8.34783 21 11Z" stroke="#FBFDFF" stroke-width="2" stroke-linecap="round" stroke-linejoin="round"/>
<path d="M10.9998 14.3334C12.8408 14.3334 14.3332 12.841 14.3332 11.0001C14.3332 9.15913 12.8408 7.66675 10.9998 7.66675C9.15889 7.66675 7.6665 9.15913 7.6665 11.0001C7.6665 12.841 9.15889 14.3334 10.9998 14.3334Z" stroke="#FBFDFF" stroke-width="2" stroke-linecap="round" stroke-linejoin="round"/>
</svg>
