<svg width="20" height="22" viewBox="0 0 20 22" fill="none" xmlns="http://www.w3.org/2000/svg">
<path d="M14.4475 8.36909L5.48242 3.19922" stroke="#FBFDFF" stroke-width="2" stroke-linecap="round" stroke-linejoin="round"/>
<path d="M18.9302 14.9437V6.97469C18.9298 6.62533 18.8376 6.2822 18.6628 5.97973C18.4879 5.67726 18.2366 5.42608 17.9341 5.2514L10.9612 1.26691C10.6584 1.09205 10.3148 1 9.9651 1C9.61539 1 9.27184 1.09205 8.96898 1.26691L1.99612 5.2514C1.69356 5.42608 1.44226 5.67726 1.26742 5.97973C1.09258 6.2822 1.00036 6.62533 1 6.97469V14.9437C1.00036 15.293 1.09258 15.6362 1.26742 15.9386C1.44226 16.2411 1.69356 16.4923 1.99612 16.667L8.96898 20.6515C9.27184 20.8263 9.61539 20.9184 9.9651 20.9184C10.3148 20.9184 10.6584 20.8263 10.9612 20.6515L17.9341 16.667C18.2366 16.4923 18.4879 16.2411 18.6628 15.9386C18.8376 15.6362 18.9298 15.293 18.9302 14.9437Z" stroke="#FBFDFF" stroke-width="2" stroke-linecap="round" stroke-linejoin="round"/>
<path d="M1.26953 5.93848L9.96568 10.9689L18.6618 5.93848" stroke="#FBFDFF" stroke-width="2" stroke-linecap="round" stroke-linejoin="round"/>
<path d="M9.96484 20.9999V10.959" stroke="#FBFDFF" stroke-width="2" stroke-linecap="round" stroke-linejoin="round"/>
</svg>
