<svg width="20" height="20" viewBox="0 0 20 20" fill="none" xmlns="http://www.w3.org/2000/svg">
<path d="M9.49876 0.00315437C7.89376 0.0225294 4.44313 0.286279 2.51313 2.0569C1.07751 3.4794 0.576256 5.58253 0.517506 8.18316C0.468756 10.7744 0.410006 15.6407 5.10063 16.9657V18.9838C5.10063 18.9838 5.07126 19.7913 5.60501 19.9569C6.26251 20.165 6.63688 19.5438 7.26188 18.8763L8.42751 17.5582C11.6369 17.825 14.095 17.21 14.3781 17.1188C15.0294 16.9107 18.6975 16.4419 19.2969 11.575C19.9119 6.54878 18.9975 3.3819 17.3469 1.9494H17.3369C16.8388 1.49065 14.8369 0.0319044 10.3644 0.0156544C10.3644 0.0156544 10.0325 -0.00684563 9.49876 0.00252937V0.00315437ZM9.55376 1.41628C10.0094 1.41315 10.2863 1.43253 10.2863 1.43253C14.0719 1.44253 15.8788 2.5819 16.305 2.96565C17.695 4.1569 18.4113 7.0119 17.8869 11.2082C17.3888 15.2769 14.4138 15.5344 13.8631 15.71C13.6288 15.785 11.4638 16.3188 8.73626 16.1432C8.73626 16.1432 6.70501 18.5944 6.07001 19.2257C5.96938 19.3363 5.85188 19.3688 5.77688 19.3525C5.66938 19.3263 5.63688 19.1932 5.64313 19.0107L5.66251 15.6613C1.68438 14.5613 1.91876 10.4107 1.96126 8.24253C2.01001 6.0744 2.41688 4.30065 3.62813 3.0994C5.25876 1.62503 8.18876 1.42628 9.55251 1.41628H9.55376ZM9.85376 3.58378C9.82101 3.58345 9.78853 3.5896 9.75818 3.60189C9.72783 3.61417 9.70021 3.63234 9.67691 3.65534C9.65361 3.67835 9.6351 3.70574 9.62243 3.73594C9.60977 3.76613 9.60321 3.79854 9.60313 3.83128C9.60313 3.97128 9.71688 4.0819 9.85376 4.0819C10.4734 4.07012 11.0893 4.18113 11.6659 4.40855C12.2425 4.63596 12.7683 4.97527 13.2131 5.4069C14.1213 6.28878 14.5638 7.47378 14.5806 9.02316C14.5806 9.16003 14.6913 9.27378 14.8313 9.27378V9.26378C14.8972 9.26395 14.9606 9.23802 15.0076 9.19166C15.0545 9.1453 15.0812 9.08226 15.0819 9.01628C15.1122 8.287 14.994 7.55916 14.7343 6.87701C14.4746 6.19485 14.0789 5.57263 13.5713 5.04815C12.5819 4.08128 11.3281 3.58315 9.85376 3.58315V3.58378ZM6.55938 4.1569C6.38247 4.13106 6.20205 4.16657 6.04813 4.25753H6.03501C5.67767 4.46699 5.35576 4.73173 5.08126 5.0419C4.85313 5.30566 4.72938 5.57253 4.69688 5.8294C4.67751 5.98253 4.69063 6.13565 4.73626 6.2819L4.75251 6.2919C5.00938 7.0469 5.34501 7.77315 5.75501 8.4569C6.28314 9.4175 6.9331 10.3059 7.68876 11.1L7.71126 11.1325L7.74688 11.1588L7.76938 11.185L7.79563 11.2075C8.59265 11.9654 9.48319 12.6184 10.4456 13.1507C11.5456 13.7494 12.2131 14.0325 12.6138 14.15V14.1563C12.7313 14.1919 12.8381 14.2082 12.9456 14.2082C13.2871 14.1831 13.6103 14.0445 13.8638 13.8144C14.1725 13.5398 14.4343 13.2166 14.6388 12.8575V12.8513C14.8306 12.49 14.7656 12.1482 14.4888 11.9169C13.9343 11.4322 13.3347 11.0017 12.6981 10.6313C12.2719 10.4 11.8388 10.54 11.6631 10.7744L11.2888 11.2463C11.0969 11.4807 10.7481 11.4482 10.7481 11.4482L10.7381 11.4544C8.13751 10.79 7.44376 8.1569 7.44376 8.1569C7.44376 8.1569 7.41126 7.79878 7.65188 7.61628L8.12063 7.23878C8.34501 7.05628 8.50126 6.62378 8.26063 6.1969C7.89276 5.5595 7.4632 4.95975 6.97813 4.40628C6.87209 4.2758 6.72332 4.18702 6.55813 4.15565L6.55938 4.1569ZM10.2863 4.8994C9.95438 4.8994 9.95438 5.40065 10.2894 5.40065C10.7021 5.40735 11.1094 5.4953 11.488 5.65949C11.8667 5.82367 12.2093 6.06087 12.4963 6.35753C12.758 6.64629 12.9592 6.98464 13.0878 7.35256C13.2164 7.72047 13.2699 8.11045 13.245 8.4994C13.2461 8.56523 13.273 8.62799 13.3199 8.67425C13.3667 8.72051 13.4298 8.74659 13.4956 8.7469L13.5056 8.76003C13.5719 8.75954 13.6354 8.73298 13.6823 8.68608C13.7292 8.63919 13.7558 8.57572 13.7563 8.5094C13.7788 7.51628 13.47 6.68315 12.8644 6.01565C12.2556 5.34815 11.4063 4.97378 10.3219 4.8994H10.2863ZM10.6969 6.2469C10.355 6.2369 10.3419 6.74815 10.6806 6.75815C11.5044 6.80065 11.9044 7.2169 11.9569 8.07315C11.958 8.13815 11.9846 8.20012 12.0308 8.24579C12.0771 8.29146 12.1394 8.31721 12.2044 8.31753H12.2144C12.2478 8.3161 12.2806 8.30802 12.3109 8.29377C12.3411 8.27953 12.3683 8.25939 12.3907 8.23455C12.4131 8.20971 12.4303 8.18065 12.4413 8.14908C12.4524 8.1175 12.457 8.08404 12.455 8.05065C12.3963 6.9344 11.7875 6.30565 10.7069 6.24753H10.6969V6.2469Z" fill="#FBFDFF"/>
</svg>
