<svg width="30" height="30" viewBox="0 0 30 30" fill="none" xmlns="http://www.w3.org/2000/svg">
<g clip-path="url(#clip0)">
<path d="M24.7538 6.12724C24.6242 6.51431 24.4045 6.87056 24.117 7.15808L23.1677 8.10736C23.0037 8.2713 22.9102 8.49789 22.9102 8.72875V9.75871C22.9102 10.2436 23.3041 10.6376 23.7891 10.6376C25.243 10.6376 26.4258 11.8204 26.4258 13.2743V14.6176C26.4258 15.0244 26.3296 15.4321 26.1477 15.796L25.8473 16.3969C25.649 16.7925 25.8078 17.1264 25.8859 17.2517C25.9631 17.3771 26.1906 17.6689 26.6335 17.6689H29.7527C29.9062 16.8113 30 15.9331 30 15.0322C30 10.8178 28.1807 7.01306 25.3648 4.29419L24.7538 6.12724Z" fill="url(#paint0_linear)"/>
<path d="M7.67604 10.5475C7.47518 10.9123 7.60824 11.392 7.9799 11.6392L9.80639 12.8572C9.78406 11.4779 10.5643 10.1346 11.935 9.43078C12.1916 9.29947 12.3633 8.96302 12.3633 8.59306V8.00085C12.3633 6.54691 13.5461 5.36414 15 5.36414H16.0609C16.3476 5.36414 16.6085 5.23025 16.775 4.99675C16.9423 4.76332 16.9853 4.47404 16.8926 4.20199L15.5018 0.0575342C15.3338 0.0519678 15.1694 0.0321045 15 0.0321045C10.2003 0.0321045 5.8751 2.37474 3.13965 5.90285L5.9491 6.59068C7.67422 7.01929 8.54064 8.97011 7.67604 10.5475Z" fill="url(#paint1_linear)"/>
<path d="M18.205 6.01994C17.7114 6.71 16.9098 7.12203 16.0609 7.12203H15.0001C14.5152 7.12203 14.1212 7.51602 14.1212 8.00094V8.59315C14.1212 9.62141 13.5779 10.5638 12.7376 10.9947C11.7162 11.5191 11.2871 12.6718 11.7608 13.6185L12.028 14.1532H13.0346C14.5812 14.1532 15.9726 15.0133 16.6652 16.3968C17.0574 17.1813 17.8462 17.6688 18.7234 17.6688H20.2735C20.7593 17.6688 21.1524 18.062 21.1524 18.5478V20.3056C21.1524 21.49 20.6881 22.6007 19.8461 23.4324C18.4893 24.7715 17.1824 27.5301 16.269 29.9679C22.4181 29.4472 27.5775 25.1377 29.3386 19.4267H26.6336C25.7126 19.4267 24.8741 18.9589 24.39 18.1761C23.9067 17.3933 23.863 16.4338 24.2749 15.6106L24.5754 15.0098C24.6363 14.8888 24.6681 14.7532 24.6681 14.6176V13.2743C24.6681 12.7894 24.2741 12.3954 23.7891 12.3954C22.3352 12.3954 21.1524 11.2126 21.1524 9.75869V8.72873C21.1524 8.0249 21.4271 7.36233 21.9249 6.86451L22.8742 5.91524C22.9704 5.81908 23.0433 5.69979 23.0871 5.57018L23.9195 3.07338C22.0426 1.66983 19.8311 0.641916 17.4225 0.246643L18.5561 3.63559C18.8298 4.43809 18.6985 5.32983 18.205 6.01994Z" fill="url(#paint2_linear)"/>
<path d="M13.5475 29.9585C12.713 28.2127 12.3633 24.6071 12.3633 23.0659C12.3633 22.6539 12.2028 22.2668 11.9118 21.9758L10.863 20.927C10.5197 20.5837 10.5197 20.0275 10.863 19.6842L11.3866 19.1606C11.8569 18.6902 11.9728 17.9744 11.6759 17.3804L10.8025 15.6337L7.00494 13.1017C5.88141 12.3533 5.49861 10.8598 6.13459 9.70113C6.44227 9.14332 6.13951 8.44962 5.52346 8.29611L2.0884 7.45154C0.770566 9.67728 0 12.2634 0 15.0321C0 22.7807 5.9881 29.2254 13.5475 29.9585Z" fill="url(#paint3_linear)"/>
<path d="M19.3947 20.3056V19.4267H18.7235C17.1768 19.4267 15.7855 18.5667 15.0928 17.1831C14.7006 16.3986 13.9118 15.9111 13.0346 15.9111H12.9067L13.2483 16.5943C13.8637 17.8251 13.6508 19.298 12.7256 20.3039L13.1547 20.733C13.7779 21.3562 14.1212 22.1845 14.1212 23.066C14.1212 24.4933 14.4191 27.1311 14.904 28.6229C15.7074 26.6067 17.018 23.7535 18.611 22.1819C19.1166 21.6823 19.3947 21.0163 19.3947 20.3056Z" fill="url(#paint4_linear)"/>
</g>
<defs>
<linearGradient id="paint0_linear" x1="26.4551" y1="4.29419" x2="26.4551" y2="17.6689" gradientUnits="userSpaceOnUse">
<stop stop-color="#DE1142"/>
<stop offset="1" stop-color="#CD0837"/>
</linearGradient>
<linearGradient id="paint1_linear" x1="10.0401" y1="0.0321045" x2="10.0401" y2="12.8572" gradientUnits="userSpaceOnUse">
<stop stop-color="#DE1142"/>
<stop offset="1" stop-color="#CD0837"/>
</linearGradient>
<linearGradient id="paint2_linear" x1="20.4535" y1="0.246643" x2="20.4535" y2="29.9679" gradientUnits="userSpaceOnUse">
<stop stop-color="#DE1142"/>
<stop offset="1" stop-color="#CD0837"/>
</linearGradient>
<linearGradient id="paint3_linear" x1="6.77376" y1="7.45154" x2="6.77376" y2="29.9585" gradientUnits="userSpaceOnUse">
<stop stop-color="#DE1142"/>
<stop offset="1" stop-color="#CD0837"/>
</linearGradient>
<linearGradient id="paint4_linear" x1="16.0601" y1="15.9111" x2="16.0601" y2="28.6229" gradientUnits="userSpaceOnUse">
<stop stop-color="#DE1142"/>
<stop offset="1" stop-color="#CD0837"/>
</linearGradient>
<clipPath id="clip0">
<rect width="30" height="30" fill="white"/>
</clipPath>
</defs>
</svg>
