<svg width="30" height="30" viewBox="0 0 30 30" fill="none" xmlns="http://www.w3.org/2000/svg">
<path d="M16.9277 11.5434L14.9999 7.63715L13.0721 11.5434C12.9441 11.8028 12.6966 11.9826 12.4104 12.0242L8.09961 12.6505L11.2189 15.6911C11.426 15.893 11.5206 16.1839 11.4717 16.469L10.7353 20.7623L14.591 18.7353C14.719 18.668 14.8595 18.6344 15 18.6344C15.1404 18.6344 15.2809 18.668 15.409 18.7353L19.2646 20.7623L18.5283 16.469C18.4794 16.1839 18.5739 15.893 18.781 15.6911L21.9003 12.6505L17.5896 12.0242C17.3032 11.9826 17.0557 11.8028 16.9277 11.5434Z" fill="url(#paint0_linear)"/>
<path d="M15 0C6.72896 0 0 6.72896 0 15C0 23.271 6.72896 30 15 30C23.271 30 30 23.271 30 15C30 6.72896 23.271 0 15 0ZM24.4025 12.6662L20.3389 16.6273L21.2982 22.2204C21.3547 22.5502 21.2192 22.8834 20.9486 23.0801C20.7955 23.1913 20.6141 23.2479 20.4319 23.2479C20.292 23.2479 20.1516 23.2146 20.0229 23.147L15 20.5062L9.97705 23.1469C9.68092 23.3027 9.32215 23.2767 9.05145 23.08C8.7808 22.8834 8.64522 22.5502 8.70182 22.2204L9.66111 16.6273L5.59746 12.6662C5.35793 12.4327 5.27168 12.0834 5.3751 11.7653C5.47846 11.4471 5.7535 11.2152 6.08455 11.1671L11.7004 10.3511L14.2119 5.26225C14.3599 4.96225 14.6655 4.77234 15 4.77234C15.3345 4.77234 15.6401 4.9623 15.7881 5.26225L18.2996 10.3511L23.9154 11.1671C24.2465 11.2152 24.5215 11.4471 24.6249 11.7653C24.7283 12.0834 24.6421 12.4327 24.4025 12.6662Z" fill="url(#paint1_linear)"/>
<defs>
<linearGradient id="paint0_linear" x1="15" y1="7.63715" x2="15" y2="20.7623" gradientUnits="userSpaceOnUse">
<stop stop-color="#DE1142"/>
<stop offset="1" stop-color="#CD0837"/>
</linearGradient>
<linearGradient id="paint1_linear" x1="15" y1="0" x2="15" y2="30" gradientUnits="userSpaceOnUse">
<stop stop-color="#DE1142"/>
<stop offset="1" stop-color="#CD0837"/>
</linearGradient>
</defs>
</svg>
