<svg width="40" height="50" viewBox="0 0 40 50" fill="none" xmlns="http://www.w3.org/2000/svg">
<path d="M0.649902 43.6523H19.9106C19.3424 46.1592 19.3999 48.1769 19.3999 50H5.04443C2.62158 50 0.649902 48.0283 0.649902 45.6055V43.6523Z" fill="url(#paint0_linear)"/>
<path d="M28.5796 4.39453V26.249L25.6733 23.3115C23.877 21.5152 20.9731 21.5196 19.1821 23.3105C17.3817 25.1089 17.3979 28.0084 19.1704 29.791L24.7817 35.625C23.5649 36.5322 21.9888 38.1162 20.8579 40.7227H0.649902V4.39453C0.649902 1.97168 2.62158 0 5.04443 0H24.1851C26.6079 0 28.5796 1.97168 28.5796 4.39453Z" fill="url(#paint1_linear)"/>
<path d="M39.093 35.2354L36.3635 48.8233C36.2268 49.5 35.6321 50 34.927 50H22.3294C22.3294 48.1709 22.262 46.1094 22.9397 43.6524C23.3557 42.1436 24.0149 40.6953 24.9993 39.4697C26.2561 37.9082 27.5344 37.3496 27.636 37.3067C28.6121 36.9575 28.9262 35.7043 28.1702 34.9219L21.2727 27.751C20.1926 26.6719 20.9622 24.8965 22.427 24.8965C22.8704 24.8965 23.2874 25.0693 23.596 25.3779C23.596 25.3779 25.7796 27.6182 30.6067 32.4453C31.1809 33.0195 32.1096 33.0137 32.678 32.4453C33.2503 31.8731 33.2503 30.9463 32.678 30.374L31.509 29.2051V19.5098C36.0618 24.0625 35.9309 23.9102 36.3958 24.4639C38.8059 27.3301 39.885 31.2832 39.093 35.2354Z" fill="url(#paint2_linear)"/>
<defs>
<linearGradient id="paint0_linear" x1="10.2803" y1="43.6523" x2="10.2803" y2="50" gradientUnits="userSpaceOnUse">
<stop stop-color="#DE1142"/>
<stop offset="1" stop-color="#CD0837"/>
</linearGradient>
<linearGradient id="paint1_linear" x1="14.6147" y1="0" x2="14.6147" y2="40.7227" gradientUnits="userSpaceOnUse">
<stop stop-color="#0D65D2"/>
<stop offset="1" stop-color="#1C78EB"/>
</linearGradient>
<linearGradient id="paint2_linear" x1="30.058" y1="19.5098" x2="30.058" y2="50" gradientUnits="userSpaceOnUse">
<stop stop-color="#0D65D2"/>
<stop offset="1" stop-color="#1C78EB"/>
</linearGradient>
</defs>
</svg>
