<svg width="50" height="50" viewBox="0 0 50 50" fill="none" xmlns="http://www.w3.org/2000/svg">
<path d="M5.6499 43.6523H24.9106C24.3424 46.1592 24.3999 48.1769 24.3999 50H10.0444C7.62158 50 5.6499 48.0283 5.6499 45.6055V43.6523Z" fill="url(#paint0_linear)"/>
<path d="M33.5796 4.39453V26.249L30.6733 23.3115C28.877 21.5152 25.9731 21.5196 24.1821 23.3105C22.3817 25.1089 22.3979 28.0084 24.1704 29.791L29.7817 35.625C28.5649 36.5322 26.9888 38.1162 25.8579 40.7227H5.6499V4.39453C5.6499 1.97168 7.62158 0 10.0444 0H29.1851C31.6079 0 33.5796 1.97168 33.5796 4.39453Z" fill="url(#paint1_linear)"/>
<path d="M44.093 35.2354L41.3635 48.8233C41.2268 49.5 40.6321 50 39.927 50H27.3294C27.3294 48.1709 27.262 46.1094 27.9397 43.6524C28.3557 42.1436 29.0149 40.6953 29.9993 39.4697C31.2561 37.9082 32.5344 37.3496 32.636 37.3067C33.6121 36.9575 33.9262 35.7043 33.1702 34.9219L26.2727 27.751C25.1926 26.6719 25.9622 24.8965 27.427 24.8965C27.8704 24.8965 28.2874 25.0693 28.596 25.3779C28.596 25.3779 30.7796 27.6182 35.6067 32.4453C36.1809 33.0195 37.1096 33.0137 37.678 32.4453C38.2503 31.8731 38.2503 30.9463 37.678 30.374L36.509 29.2051V19.5098C41.0618 24.0625 40.9309 23.9102 41.3958 24.4639C43.8059 27.3301 44.885 31.2832 44.093 35.2354Z" fill="url(#paint2_linear)"/>
<defs>
<linearGradient id="paint0_linear" x1="15.2803" y1="43.6523" x2="15.2803" y2="50" gradientUnits="userSpaceOnUse">
<stop stop-color="#DE1142"/>
<stop offset="1" stop-color="#CD0837"/>
</linearGradient>
<linearGradient id="paint1_linear" x1="19.6147" y1="0" x2="19.6147" y2="40.7227" gradientUnits="userSpaceOnUse">
<stop stop-color="#0D65D2"/>
<stop offset="1" stop-color="#1C78EB"/>
</linearGradient>
<linearGradient id="paint2_linear" x1="35.058" y1="19.5098" x2="35.058" y2="50" gradientUnits="userSpaceOnUse">
<stop stop-color="#0D65D2"/>
<stop offset="1" stop-color="#1C78EB"/>
</linearGradient>
</defs>
</svg>
