<svg width="50" height="50" viewBox="0 0 50 50" fill="none" xmlns="http://www.w3.org/2000/svg">
<path d="M47.2846 21.3987C47.2079 21.2992 47.1338 21.2032 47.0632 21.11C46.1819 19.9487 45.4693 18.6415 44.8407 17.4882C44.2244 16.3574 43.6422 15.2893 43.0066 14.5506C41.5885 12.9027 40.2542 12.1017 38.9274 12.1017H32.3756C32.3694 12.1019 31.7435 12.1095 30.9902 12.1095H29.9218C29.1582 12.1095 28.4923 12.6279 28.3024 13.3703L28.2936 13.4049V27.871L28.2952 27.9008C28.2959 27.9095 28.3122 28.1167 28.1488 28.295C27.9686 28.4919 27.6226 28.5959 27.1482 28.5959H1.62884C0.730679 28.5958 0 29.2832 0 30.1281V35.3954C0 36.2403 0.730679 36.9277 1.62884 36.9277H7.23355C7.52718 40.2829 10.3508 42.9241 13.7815 42.9241C17.2122 42.9241 20.036 40.2829 20.3296 36.9277H29.7097C30.0034 40.2829 32.827 42.9241 36.2577 42.9241C39.6884 42.9241 42.5122 40.2829 42.8057 36.9277H47.0689C48.685 36.9277 49.9999 35.6129 49.9999 33.9969V28.9679C50 24.9204 48.3659 22.801 47.2846 21.3987ZM38.7092 36.3503C38.7092 37.7016 37.6095 38.801 36.2577 38.801C34.9063 38.801 33.807 37.7016 33.807 36.3503C33.807 34.999 34.9063 33.8995 36.2577 33.8995C37.6095 33.8995 38.7092 34.9988 38.7092 36.3503ZM44.3461 23.5907C44.2949 23.6753 44.1487 23.7118 43.9266 23.6976L32.663 23.697V14.5094H37.5326C38.8428 14.5094 39.7713 15.0798 40.7374 16.478C41.3798 17.4079 43.0809 20.336 43.1676 20.4854C43.228 20.602 43.2901 20.7206 43.3528 20.8403C43.8436 21.7783 44.5854 23.1955 44.3461 23.5907ZM13.7815 33.8995C15.1333 33.8995 16.233 34.999 16.233 36.3503C16.233 37.7016 15.1333 38.801 13.7815 38.801C12.4302 38.801 11.3308 37.7016 11.3308 36.3503C11.3308 34.9988 12.4302 33.8995 13.7815 33.8995Z" fill="url(#paint0_linear)"/>
<path d="M3.43302 26.2656H11.1543C11.9369 26.2656 12.5736 25.6289 12.5736 24.8462V19.1689C12.5736 18.3862 11.9369 17.7495 11.1543 17.7495H3.43302C2.65033 17.7495 2.01367 18.3862 2.01367 19.1689V24.8462C2.01367 25.6289 2.65045 26.2656 3.43302 26.2656Z" fill="url(#paint1_linear)"/>
<path d="M16.2641 26.2656H23.9853C24.768 26.2656 25.4047 25.6289 25.4047 24.8462V19.1689C25.4047 18.3862 24.768 17.7495 23.9853 17.7495H16.2641C15.4814 17.7495 14.8447 18.3862 14.8447 19.1689V24.8462C14.8447 25.6289 15.4815 26.2656 16.2641 26.2656Z" fill="url(#paint2_linear)"/>
<path d="M3.43302 15.5921H11.1543C11.9369 15.5921 12.5736 14.9555 12.5736 14.1728V8.49539C12.5736 7.71271 11.9369 7.07605 11.1543 7.07605H3.43302C2.65033 7.07605 2.01367 7.71271 2.01367 8.49539V14.1728C2.01367 14.9555 2.65045 15.5921 3.43302 15.5921Z" fill="url(#paint3_linear)"/>
<path d="M16.2641 15.5921H23.9853C24.768 15.5921 25.4047 14.9555 25.4047 14.1728V8.49539C25.4047 7.71271 24.768 7.07605 23.9853 7.07605H16.2641C15.4814 7.07605 14.8447 7.71271 14.8447 8.49539V14.1728C14.8447 14.9555 15.4815 15.5921 16.2641 15.5921Z" fill="url(#paint4_linear)"/>
<defs>
<linearGradient id="paint0_linear" x1="24.9999" y1="12.1017" x2="24.9999" y2="42.9241" gradientUnits="userSpaceOnUse">
<stop stop-color="#0D65D2"/>
<stop offset="1" stop-color="#1C78EB"/>
</linearGradient>
<linearGradient id="paint1_linear" x1="7.29364" y1="17.7495" x2="7.29364" y2="26.2656" gradientUnits="userSpaceOnUse">
<stop stop-color="#0D65D2"/>
<stop offset="1" stop-color="#1C78EB"/>
</linearGradient>
<linearGradient id="paint2_linear" x1="20.1247" y1="17.7495" x2="20.1247" y2="26.2656" gradientUnits="userSpaceOnUse">
<stop stop-color="#0D65D2"/>
<stop offset="1" stop-color="#1C78EB"/>
</linearGradient>
<linearGradient id="paint3_linear" x1="7.29364" y1="7.07605" x2="7.29364" y2="15.5921" gradientUnits="userSpaceOnUse">
<stop stop-color="#DE1142"/>
<stop offset="1" stop-color="#CD0837"/>
</linearGradient>
<linearGradient id="paint4_linear" x1="20.1247" y1="7.07605" x2="20.1247" y2="15.5921" gradientUnits="userSpaceOnUse">
<stop stop-color="#0D65D2"/>
<stop offset="1" stop-color="#1C78EB"/>
</linearGradient>
</defs>
</svg>
