<svg width="50" height="50" viewBox="0 0 50 50" fill="none" xmlns="http://www.w3.org/2000/svg">
<g clip-path="url(#clip0)">
<path fill-rule="evenodd" clip-rule="evenodd" d="M39.476 0H31.5654C29.1431 0 27.1709 1.9722 27.1709 4.39453V7.03049H24.9248C24.1157 7.03049 23.46 7.68661 23.46 8.49533C23.46 9.30443 24.1157 9.96017 24.9248 9.96017H27.2026C27.5753 14.246 31.1737 17.5777 35.5205 17.5777C40.1317 17.5777 43.8705 13.839 43.8705 9.22775C43.8705 7.61833 43.8705 6.00548 43.8705 4.39453C43.8705 1.9722 41.8983 0 39.476 0Z" fill="url(#paint0_linear)"/>
<path fill-rule="evenodd" clip-rule="evenodd" d="M32.1072 21.2433C31.0383 21.7259 30.0888 22.4251 29.3167 23.2838L21.4417 31.3473H10.4492C8.02917 31.3473 6.05469 33.3222 6.05469 35.7422C6.05469 38.1619 8.02956 40.1367 10.4492 40.1367H22.7543C24.1043 40.1367 25.4425 39.7976 26.4477 38.7852L27.7573 37.4668V48.5344C27.7573 49.2439 28.2612 49.865 28.9307 50L42.4076 49.9993C43.2156 49.9985 43.8705 49.3427 43.8705 48.5344V28.8571C43.8705 22.8417 37.6221 18.7542 32.1072 21.2433Z" fill="url(#paint1_linear)"/>
<path fill-rule="evenodd" clip-rule="evenodd" d="M10.0806 28.4176H20.6278C21.4369 28.4176 22.0927 27.7619 22.0927 26.9528V16.5035C22.0927 15.6944 21.4369 15.0387 20.6278 15.0387H16.8192V17.5549C16.8192 18.364 16.1631 19.0197 15.3544 19.0197C14.5453 19.0197 13.8895 18.364 13.8895 17.5549V15.0387H10.0806C9.27185 15.0387 8.61572 15.6944 8.61572 16.5035V26.9528C8.61572 27.7619 9.27185 28.4176 10.0806 28.4176Z" fill="url(#paint2_linear)"/>
</g>
<defs>
<linearGradient id="paint0_linear" x1="33.6652" y1="0" x2="33.6652" y2="17.5777" gradientUnits="userSpaceOnUse">
<stop stop-color="#0D65D2"/>
<stop offset="1" stop-color="#1C78EB"/>
</linearGradient>
<linearGradient id="paint1_linear" x1="24.9626" y1="20.5016" x2="24.9626" y2="50" gradientUnits="userSpaceOnUse">
<stop stop-color="#0D65D2"/>
<stop offset="1" stop-color="#1C78EB"/>
</linearGradient>
<linearGradient id="paint2_linear" x1="15.3542" y1="15.0387" x2="15.3542" y2="28.4176" gradientUnits="userSpaceOnUse">
<stop stop-color="#DE1142"/>
<stop offset="1" stop-color="#CD0837"/>
</linearGradient>
<clipPath id="clip0">
<rect width="50" height="50" fill="white"/>
</clipPath>
</defs>
</svg>
