<svg width="50" height="50" viewBox="0 0 50 50" fill="none" xmlns="http://www.w3.org/2000/svg">
<path d="M42.5781 35.2539C45.0052 35.2539 46.9727 33.2864 46.9727 30.8594C46.9727 28.4323 45.0052 26.4648 42.5781 26.4648C40.1511 26.4648 38.1836 28.4323 38.1836 30.8594C38.1836 33.2864 40.1511 35.2539 42.5781 35.2539Z" fill="url(#paint0_linear)"/>
<path d="M42.5781 35.2539C38.5397 35.2539 35.2539 38.5397 35.2539 42.5781C35.2539 43.3878 35.9091 44.043 36.7188 44.043H48.5352C49.3448 44.043 50 43.3878 50 42.5781C50 38.5397 46.6165 35.2539 42.5781 35.2539Z" fill="url(#paint1_linear)"/>
<path d="M7.42188 14.7461C9.84891 14.7461 11.8164 12.7786 11.8164 10.3516C11.8164 7.92453 9.84891 5.95703 7.42188 5.95703C4.99484 5.95703 3.02734 7.92453 3.02734 10.3516C3.02734 12.7786 4.99484 14.7461 7.42188 14.7461Z" fill="url(#paint2_linear)"/>
<path d="M0 22.0703C0 22.88 0.655176 23.5352 1.46484 23.5352H13.2812C14.0909 23.5352 14.7461 22.88 14.7461 22.0703C14.7461 18.0319 11.4603 14.7461 7.42188 14.7461C3.3835 14.7461 0 18.0319 0 22.0703Z" fill="url(#paint3_linear)"/>
<path d="M36.285 34.5438C35.6461 33.4572 35.2539 32.2083 35.2539 30.8594C35.2539 30.3578 35.3056 29.8681 35.4021 29.3945H13.2812C12.4716 29.3945 11.8164 30.0497 11.8164 30.8594V42.5781C11.8164 43.3878 12.4716 44.043 13.2812 44.043H32.594C32.4299 43.5825 32.3242 43.0941 32.3242 42.5781C32.3242 39.3074 33.8923 36.4229 36.285 34.5438ZM16.2109 38.1834C15.4018 38.1834 14.7461 37.5275 14.7461 36.7186C14.7461 35.9096 15.4018 35.2537 16.2109 35.2537C17.0199 35.2537 17.6758 35.9096 17.6758 36.7186C17.6758 37.5275 17.0199 38.1834 16.2109 38.1834ZM22.0703 38.1834C21.2611 38.1834 20.6055 37.5275 20.6055 36.7186C20.6055 35.9096 21.2611 35.2537 22.0703 35.2537C22.8793 35.2537 23.5352 35.9096 23.5352 36.7186C23.5352 37.5275 22.8793 38.1834 22.0703 38.1834ZM27.9297 38.1834C27.1205 38.1834 26.4648 37.5275 26.4648 36.7186C26.4648 35.9096 27.1205 35.2537 27.9297 35.2537C28.7387 35.2537 29.3945 35.9096 29.3945 36.7186C29.3945 37.5275 28.7387 38.1834 27.9297 38.1834Z" fill="url(#paint4_linear)"/>
<path d="M38.1834 22.0703V10.3516C38.1834 9.54189 37.5282 8.88672 36.7186 8.88672H14.5977C14.6942 9.36025 14.7459 9.85 14.7459 10.3516C14.7459 11.7005 14.3537 12.9494 13.7148 14.036C16.1075 15.915 17.6756 18.7996 17.6756 22.0703C17.6756 22.5863 17.5699 23.0747 17.4058 23.5352H36.7186C37.5282 23.5352 38.1834 22.88 38.1834 22.0703ZM22.0701 17.6756C21.2609 17.6756 20.6053 17.0197 20.6053 16.2107C20.6053 15.4018 21.2609 14.7459 22.0701 14.7459C22.8791 14.7459 23.535 15.4018 23.535 16.2107C23.535 17.0197 22.8791 17.6756 22.0701 17.6756ZM27.9295 17.6756C27.1203 17.6756 26.4647 17.0197 26.4647 16.2107C26.4647 15.4018 27.1203 14.7459 27.9295 14.7459C28.7385 14.7459 29.3943 15.4018 29.3943 16.2107C29.3943 17.0197 28.7385 17.6756 27.9295 17.6756ZM33.7889 17.6756C32.9797 17.6756 32.324 17.0197 32.324 16.2107C32.324 15.4018 32.9797 14.7459 33.7889 14.7459C34.5979 14.7459 35.2537 15.4018 35.2537 16.2107C35.2537 17.0197 34.5979 17.6756 33.7889 17.6756Z" fill="url(#paint5_linear)"/>
<defs>
<linearGradient id="paint0_linear" x1="42.5781" y1="26.4648" x2="42.5781" y2="35.2539" gradientUnits="userSpaceOnUse">
<stop stop-color="#0D65D2"/>
<stop offset="1" stop-color="#1C78EB"/>
</linearGradient>
<linearGradient id="paint1_linear" x1="42.627" y1="35.2539" x2="42.627" y2="44.043" gradientUnits="userSpaceOnUse">
<stop stop-color="#DE1142"/>
<stop offset="1" stop-color="#CD0837"/>
</linearGradient>
<linearGradient id="paint2_linear" x1="7.42188" y1="5.95703" x2="7.42188" y2="14.7461" gradientUnits="userSpaceOnUse">
<stop stop-color="#0D65D2"/>
<stop offset="1" stop-color="#1C78EB"/>
</linearGradient>
<linearGradient id="paint3_linear" x1="7.37305" y1="14.7461" x2="7.37305" y2="23.5352" gradientUnits="userSpaceOnUse">
<stop stop-color="#DE1142"/>
<stop offset="1" stop-color="#CD0837"/>
</linearGradient>
<linearGradient id="paint4_linear" x1="24.0507" y1="29.3945" x2="24.0507" y2="44.043" gradientUnits="userSpaceOnUse">
<stop stop-color="#0D65D2"/>
<stop offset="1" stop-color="#1C78EB"/>
</linearGradient>
<linearGradient id="paint5_linear" x1="25.9491" y1="8.88672" x2="25.9491" y2="23.5352" gradientUnits="userSpaceOnUse">
<stop stop-color="#0D65D2"/>
<stop offset="1" stop-color="#1C78EB"/>
</linearGradient>
</defs>
</svg>
