<svg width="38" height="50" viewBox="0 0 38 50" fill="none" xmlns="http://www.w3.org/2000/svg">
<path fill-rule="evenodd" clip-rule="evenodd" d="M33.476 0H25.5654C23.1431 0 21.1709 1.9722 21.1709 4.39453V7.03049H18.9248C18.1157 7.03049 17.46 7.68661 17.46 8.49533C17.46 9.30443 18.1157 9.96017 18.9248 9.96017H21.2026C21.5753 14.246 25.1737 17.5777 29.5205 17.5777C34.1317 17.5777 37.8705 13.839 37.8705 9.22775C37.8705 7.61833 37.8705 6.00548 37.8705 4.39453C37.8705 1.9722 35.8983 0 33.476 0Z" fill="url(#paint0_linear)"/>
<path fill-rule="evenodd" clip-rule="evenodd" d="M26.1072 21.2433C25.0383 21.7259 24.0888 22.4251 23.3167 23.2838L15.4417 31.3473H4.44922C2.02917 31.3473 0.0546875 33.3222 0.0546875 35.7422C0.0546875 38.1619 2.02956 40.1367 4.44922 40.1367H16.7543C18.1043 40.1367 19.4425 39.7976 20.4477 38.7852L21.7573 37.4668V48.5344C21.7573 49.2439 22.2612 49.865 22.9307 50L36.4076 49.9993C37.2156 49.9985 37.8705 49.3427 37.8705 48.5344V28.8571C37.8705 22.8417 31.6221 18.7542 26.1072 21.2433Z" fill="url(#paint1_linear)"/>
<path fill-rule="evenodd" clip-rule="evenodd" d="M4.08057 28.4176H14.6278C15.4369 28.4176 16.0927 27.7619 16.0927 26.9528V16.5035C16.0927 15.6944 15.4369 15.0387 14.6278 15.0387H10.8192V17.5549C10.8192 18.364 10.1631 19.0197 9.35439 19.0197C8.54529 19.0197 7.88954 18.364 7.88954 17.5549V15.0387H4.08057C3.27185 15.0387 2.61572 15.6944 2.61572 16.5035V26.9528C2.61572 27.7619 3.27185 28.4176 4.08057 28.4176Z" fill="url(#paint2_linear)"/>
<defs>
<linearGradient id="paint0_linear" x1="27.6652" y1="0" x2="27.6652" y2="17.5777" gradientUnits="userSpaceOnUse">
<stop stop-color="#0D65D2"/>
<stop offset="1" stop-color="#1C78EB"/>
</linearGradient>
<linearGradient id="paint1_linear" x1="18.9626" y1="20.5016" x2="18.9626" y2="50" gradientUnits="userSpaceOnUse">
<stop stop-color="#0D65D2"/>
<stop offset="1" stop-color="#1C78EB"/>
</linearGradient>
<linearGradient id="paint2_linear" x1="9.3542" y1="15.0387" x2="9.3542" y2="28.4176" gradientUnits="userSpaceOnUse">
<stop stop-color="#DE1142"/>
<stop offset="1" stop-color="#CD0837"/>
</linearGradient>
</defs>
</svg>
