<svg width="50" height="50" viewBox="0 0 50 50" fill="none" xmlns="http://www.w3.org/2000/svg">
<path d="M46.6971 15.7996C45.6272 14.7289 43.9263 14.6616 42.7761 15.5988C42.6098 15.7343 42.7386 15.6149 40.2061 18.1474L46.7799 24.7214L49.1425 22.3883C50.2848 21.246 50.2848 19.3874 49.1425 18.245L46.6971 15.7996Z" fill="url(#paint0_linear)"/>
<path d="M26.7251 31.7527L22.8582 40.0392C22.5977 40.5975 22.7142 41.2589 23.1498 41.6945C23.5853 42.1301 24.247 42.2465 24.805 41.9861L33.0916 38.119C33.4194 37.966 32.4269 38.8949 44.6953 26.7797L38.1344 20.2188C25.9706 32.3828 26.8812 31.4184 26.7251 31.7527Z" fill="url(#paint1_linear)"/>
<path d="M35.56 39.919C35.2012 40.2732 34.7877 40.5608 34.331 40.774L26.0444 44.6411C24.4149 45.4016 22.4242 45.112 21.0788 43.7663C19.777 42.4646 19.4253 40.4689 20.2038 38.8004L24.0709 30.5137C24.2881 30.0483 24.5824 29.6282 24.9456 29.2649L37.4033 16.8072V4.39453C37.4033 1.97139 35.4319 0 33.0088 0H4.39551C1.97236 0 0.000976562 1.97139 0.000976562 4.39453V45.6055C0.000976562 48.0286 1.97236 50 4.39551 50H33.0088C35.4319 50 37.4033 48.0286 37.4033 45.6055V38.0985L35.56 39.919ZM7.81358 9.47266H29.6886C30.4976 9.47266 31.1534 10.1285 31.1534 10.9375C31.1534 11.7465 30.4976 12.4023 29.6886 12.4023H7.81358C7.00459 12.4023 6.34873 11.7465 6.34873 10.9375C6.34873 10.1285 7.00459 9.47266 7.81358 9.47266ZM7.81358 17.2852H25.0011C25.8101 17.2852 26.4659 17.941 26.4659 18.75C26.4659 19.559 25.8101 20.2148 25.0011 20.2148H7.81358C7.00459 20.2148 6.34873 19.559 6.34873 18.75C6.34873 17.941 7.00459 17.2852 7.81358 17.2852ZM6.34873 26.5625C6.34873 25.7535 7.00459 25.0977 7.81358 25.0977H20.3136C21.1226 25.0977 21.7784 25.7535 21.7784 26.5625C21.7784 27.3715 21.1226 28.0273 20.3136 28.0273H7.81358C7.00459 28.0273 6.34873 27.3715 6.34873 26.5625Z" fill="url(#paint2_linear)"/>
<defs>
<linearGradient id="paint0_linear" x1="45.1026" y1="14.9429" x2="45.1026" y2="24.7214" gradientUnits="userSpaceOnUse">
<stop stop-color="#DE1142"/>
<stop offset="1" stop-color="#CD0837"/>
</linearGradient>
<linearGradient id="paint1_linear" x1="33.708" y1="20.2188" x2="33.708" y2="42.1236" gradientUnits="userSpaceOnUse">
<stop stop-color="#DE1142"/>
<stop offset="1" stop-color="#CD0837"/>
</linearGradient>
<linearGradient id="paint2_linear" x1="18.7022" y1="0" x2="18.7022" y2="50" gradientUnits="userSpaceOnUse">
<stop stop-color="#0D65D2"/>
<stop offset="1" stop-color="#1C78EB"/>
</linearGradient>
</defs>
</svg>
