<svg width="50" height="50" viewBox="0 0 50 50" fill="none" xmlns="http://www.w3.org/2000/svg">
<path d="M0.858398 11.8164H11.7188V0.858276L0.858398 11.8164Z" fill="url(#paint0_linear)"/>
<path d="M38.1836 26.4648C31.722 26.4648 26.4648 31.722 26.4648 38.1836C26.4648 44.6452 31.722 50 38.1836 50C44.6452 50 50 44.6452 50 38.1836C50 31.722 44.6452 26.4648 38.1836 26.4648ZM43.6138 37.7544L37.7544 43.6138C37.1822 44.1859 36.2552 44.1859 35.683 43.6138L32.7533 40.6841C32.1812 40.1119 32.1812 39.1849 32.7533 38.6127C33.3255 38.0405 34.2525 38.0405 34.8247 38.6127L36.7188 40.5067L41.5425 35.683C42.1146 35.1108 43.0417 35.1108 43.6139 35.683C44.186 36.2552 44.186 37.1822 43.6138 37.7544Z" fill="url(#paint1_linear)"/>
<path d="M7.32422 32.3242H24.7769C27.0437 27.1601 32.1923 23.5352 38.1836 23.5352V4.39453C38.1836 1.97129 36.2123 0 33.7891 0H14.6484V13.2812C14.6484 14.0909 13.9933 14.7461 13.1836 14.7461H0V45.5078C0 47.9311 1.97129 50 4.39453 50H29.4852C26.6445 47.885 24.5635 44.7057 23.8312 41.1133H7.32422C6.51455 41.1133 5.85938 40.4581 5.85938 39.6484C5.85938 38.8388 6.51455 38.1836 7.32422 38.1836H23.5352C23.5352 37.1805 23.6382 36.2009 23.8312 35.2539H7.32422C6.51455 35.2539 5.85938 34.5987 5.85938 33.7891C5.85938 32.9794 6.51455 32.3242 7.32422 32.3242ZM19.043 8.88672H30.8594C31.669 8.88672 32.3242 9.54189 32.3242 10.3516C32.3242 11.1612 31.669 11.8164 30.8594 11.8164H19.043C18.2333 11.8164 17.5781 11.1612 17.5781 10.3516C17.5781 9.54189 18.2333 8.88672 19.043 8.88672ZM19.043 14.7461H30.8594C31.669 14.7461 32.3242 15.4013 32.3242 16.2109C32.3242 17.0206 31.669 17.6758 30.8594 17.6758H19.043C18.2333 17.6758 17.5781 17.0206 17.5781 16.2109C17.5781 15.4013 18.2333 14.7461 19.043 14.7461ZM7.32422 20.6055H30.8594C31.669 20.6055 32.3242 21.2606 32.3242 22.0703C32.3242 22.88 31.669 23.5352 30.8594 23.5352H7.32422C6.51455 23.5352 5.85938 22.88 5.85938 22.0703C5.85938 21.2606 6.51455 20.6055 7.32422 20.6055ZM7.32422 26.4648H25.5493C26.359 26.4648 27.0142 27.12 27.0142 27.9297C27.0142 28.7394 26.359 29.3945 25.5493 29.3945H7.32422C6.51455 29.3945 5.85938 28.7394 5.85938 27.9297C5.85938 27.12 6.51455 26.4648 7.32422 26.4648Z" fill="url(#paint2_linear)"/>
<defs>
<linearGradient id="paint0_linear" x1="6.28862" y1="0.858276" x2="6.28862" y2="11.8164" gradientUnits="userSpaceOnUse">
<stop stop-color="#0D65D2"/>
<stop offset="1" stop-color="#1C78EB"/>
</linearGradient>
<linearGradient id="paint1_linear" x1="38.2324" y1="26.4648" x2="38.2324" y2="50" gradientUnits="userSpaceOnUse">
<stop stop-color="#DE1142"/>
<stop offset="1" stop-color="#CD0837"/>
</linearGradient>
<linearGradient id="paint2_linear" x1="19.0918" y1="0" x2="19.0918" y2="50" gradientUnits="userSpaceOnUse">
<stop stop-color="#0D65D2"/>
<stop offset="1" stop-color="#1C78EB"/>
</linearGradient>
</defs>
</svg>
